<svg width="32px" height="32px" xmlns="http://www.w3.org/2000/svg" xmlns:xlink="http://www.w3.org/1999/xlink" viewBox="0 0 48 48">
  <defs>
    <path id="a" d="M0 0h48v48H0z"/>
  </defs>
  <clipPath id="b">
    <use xlink:href="#a" overflow="visible"/>
  </clipPath>
  <g clip-path="url(#b)">
    <linearGradient id="c" gradientUnits="userSpaceOnUse" x1="4.514" y1="16.169" x2="47.078" y2="45.257">
      <stop offset=".153" stop-color="#fff"/>
      <stop offset=".628" stop-color="#dba027"/>
      <stop offset="1" stop-color="#16498a"/>
    </linearGradient>
    <path d="M21 34.4c-.4.6-1 1.1-1.7 1.3C12 37.7 5 32.8 4.1 25.1c-.4-3.7.9-6.9 3.4-9.4 2.4-2.5 5.4-3.9 8.9-3.8.7 0 2.4.4 3.4.7 1.6.6.9.3.9.3 1.5.5 4.6 2.9 5.9 5.5.5.9.4 1-.6 1h-1.3c-1.6.1-2.9 0-4-1.5-.8-1.1-2.1-1.4-3.4-1.7h-.1c-.8-.2-1.7-.1-2.5 0h-.1c-.8.2-1.6.4-2.4.8-.1 0-.1.1-.2.1s-.3.1-.3.2-.1.1-.2.2c-4.1 3.1-4.4 8.6-1.2 12.2 1.9 2.1 4.3 2.7 7 2.4.4 0 .6-.3.7-.6.7-1.1 1.5-2.2 2.2-3.3.3-.5 0-1.1-.6-1.1-1.5-.1-3.1 0-4.6 0-1.2 0-1.3-.1-1.3-1.3V24c0-.7.3-1 1-1h13c.5 0 .8.5.6 1-.1.4-.4.7-.6 1 .1-.1-4.7 6.4-6.7 9.4z" fill="url(#c)"/>
    <linearGradient id="d" gradientUnits="userSpaceOnUse" x1="5.331" y1="14.974" x2="47.895" y2="44.062">
      <stop offset=".153" stop-color="#fff"/>
      <stop offset=".628" stop-color="#dba027"/>
      <stop offset="1" stop-color="#16498a"/>
    </linearGradient>
    <path d="M23.2 36.1c.9-1.3 1.7-2.5 2.5-3.7.2-.3.5-.3.8-.3h16.6c.5 0 .7.1.7.6.2 3.3.3 3.3-3 3.3-5.7.1-11.5.1-17.6.1z" fill="url(#d)"/>
    <linearGradient id="e" gradientUnits="userSpaceOnUse" x1="15.345" y1=".321" x2="57.909" y2="29.408">
      <stop offset=".153" stop-color="#fff"/>
      <stop offset=".628" stop-color="#dba027"/>
      <stop offset="1" stop-color="#16498a"/>
    </linearGradient>
    <path d="M24.8 12.6h18.4c.5 0 .7.1.7.7-.1 1.1.3 2.4-.2 3.1-.5.7-1.9.2-2.9.2H29.5c-.6 0-1-.2-1.3-.7-.9-1.2-2-2.2-3.4-3.3z" fill="url(#e)"/>
    <linearGradient id="f" gradientUnits="userSpaceOnUse" x1="10.791" y1="6.985" x2="53.354" y2="36.073">
      <stop offset=".153" stop-color="#fff"/>
      <stop offset=".628" stop-color="#dba027"/>
      <stop offset="1" stop-color="#16498a"/>
    </linearGradient>
    <path d="M29.7 24.4c1-1.1 2.7-2.1 4.7-2 2.9.2 5.8.1 8.7 0 .7 0 .9.2.8.8-.1.8 0 1.6 0 2.4 0 .4-.1.7-.6.7h-14c-.2 0-.3 0-.4-.2 0-.6.2-1 .8-1.7z" fill="url(#f)"/>
  </g>
</svg>