<svg width="32" height="32" viewBox="0 0 32 32" fill="none" xmlns="http://www.w3.org/2000/svg">
<path d="M16 9.33333V4H2.66669V28H29.3334V9.33333H16ZM8.00002 25.3333H5.33335V22.6667H8.00002V25.3333ZM8.00002 20H5.33335V17.3333H8.00002V20ZM8.00002 14.6667H5.33335V12H8.00002V14.6667ZM8.00002 9.33333H5.33335V6.66667H8.00002V9.33333ZM13.3334 25.3333H10.6667V22.6667H13.3334V25.3333ZM13.3334 20H10.6667V17.3333H13.3334V20ZM13.3334 14.6667H10.6667V12H13.3334V14.6667ZM13.3334 9.33333H10.6667V6.66667H13.3334V9.33333ZM26.6667 25.3333H16V22.6667H18.6667V20H16V17.3333H18.6667V14.6667H16V12H26.6667V25.3333ZM24 14.6667H21.3334V17.3333H24V14.6667ZM24 20H21.3334V22.6667H24V20Z" fill="#DC9F07"/>
</svg>
